0
SECTION
2
ENTITIES
0
ARC
8
0
10
0.0
20
0.0
40
403.46988
50
-41.349204
51
41.349204
0
LINE
8
0
10
302.883654
20
266.551001
11
317.498718
21
279.412904
0
ARC
8
0
10
0.0
20
0.0
40
422.938538
50
-41.349204
51
41.349204
0
LINE
8
0
10
317.498718
20
-279.412904
11
302.883654
21
-266.551001
0
ARC
8
0
10
-25.330873
20
0.0
40
401.234867
50
-39.157012
51
39.157012
0
LINE
8
0
10
285.794054
20
253.358833
11
301.929737
21
266.498627
0
ARC
8
0
10
-25.330873
20
0.0
40
422.043866
50
-39.157012
51
39.157012
0
LINE
8
0
10
301.929737
20
-266.498627
11
285.794054
21
-253.358833
0
ARC
8
0
10
-52.313487
20
0.0
40
399.371648
50
-36.905871
51
36.905871
0
LINE
8
0
10
267.033321
20
239.823538
11
284.893733
21
253.236377
0
ARC
8
0
10
-52.313487
20
0.0
40
421.707686
50
-36.905871
51
36.905871
0
LINE
8
0
10
284.893733
20
-253.236377
11
267.033321
21
-239.823538
0
ARC
8
0
10
-81.212465
20
0.0
40
397.93101
50
-34.596847
51
34.596847
0
LINE
8
0
10
246.351454
20
225.944612
11
266.183113
21
239.623947
0
ARC
8
0
10
-81.212465
20
0.0
40
422.022894
50
-34.596847
51
34.596847
0
LINE
8
0
10
266.183113
20
-239.623947
11
246.351454
21
-225.944612
0
ARC
8
0
10
-112.363181
20
0.0
40
396.97804
50
-32.231401
51
32.231401
0
LINE
8
0
10
223.440937
20
211.72425
11
245.5464
21
225.661728
0
ARC
8
0
10
-112.363181
20
0.0
40
423.110487
50
-32.231401
51
32.231401
0
LINE
8
0
10
245.5464
20
-225.661728
11
223.440937
21
-211.72425
0
ARC
8
0
10
-146.198142
20
0.0
40
396.598478
50
-29.811407
51
29.811407
0
LINE
8
0
10
197.91707
20
197.167628
11
222.674716
21
211.353012
0
ARC
8
0
10
-146.198142
20
0.0
40
425.132075
50
-29.811407
51
29.811407
0
LINE
8
0
10
222.674716
20
-211.353012
11
197.91707
21
-197.167628
0
ARC
8
0
10
-183.286924
20
0.0
40
396.908842
50
-27.33917
51
27.33917
0
LINE
8
0
10
169.288577
20
182.283145
11
197.182156
21
196.704253
0
ARC
8
0
10
-183.286924
20
0.0
40
428.309799
50
-27.33917
51
27.33917
0
LINE
8
0
10
197.182156
20
-196.704253
11
169.288577
21
-182.283145
0
ARC
8
0
10
-224.398934
20
0.0
40
398.073188
50
-24.817443
51
24.817443
0
LINE
8
0
10
136.912093
20
167.082629
11
168.576425
21
181.725304
0
ARC
8
0
10
-224.398934
20
0.0
40
432.959258
50
-24.817443
51
24.817443
0
LINE
8
0
10
168.576425
20
-181.725304
11
136.912093
21
-167.082629
0
ARC
8
0
10
-270.606484
20
0.0
40
400.332168
50
-22.24942
51
22.24942
0
LINE
8
0
10
99.918687
20
151.58147
11
136.213366
21
166.429586
0
ARC
8
0
10
-270.606484
20
0.0
40
439.546582
50
-22.24942
51
22.24942
0
LINE
8
0
10
136.213366
20
-166.429586
11
99.918687
21
-151.58147
0
ARC
8
0
10
-323.463482
20
0.0
40
404.056366
50
-19.638741
51
19.638741
0
LINE
8
0
10
57.089093
20
135.798689
11
99.223519
21
150.834193
0
ARC
8
0
10
-323.463482
20
0.0
40
448.793109
50
-19.638741
51
19.638741
0
LINE
8
0
10
99.223519
20
-150.834193
11
57.089093
21
-135.798689
0
ARC
8
0
10
-381.550144
20
0.0
40
408.056263
50
-17.064212
51
17.064212
0
LINE
8
0
10
8.542051
20
119.741359
11
56.557125
21
134.479901
0
ARC
8
0
10
-381.550144
20
0.0
40
458.28247
50
-17.064212
51
17.064212
0
LINE
8
0
10
56.557125
20
-134.479901
11
8.542051
21
-119.741359
0
ARC
8
0
10
-433.43887
20
0.0
40
406.882043
50
-14.791511
51
14.791511
0
LINE
8
0
10
-40.0404
20
103.87801
11
8.466716
21
116.686455
0
ARC
8
0
10
-433.43887
20
0.0
40
457.051722
50
-14.791511
51
14.791511
0
LINE
8
0
10
8.466716
20
-116.686455
11
-40.0404
21
-103.87801
0
ARC
8
0
10
-485.228087
20
0.0
40
406.129135
50
-12.789419
51
12.789419
0
LINE
8
0
10
-89.174914
20
89.90416
11
-40.291854
21
101.000625
0
ARC
8
0
10
-485.228087
20
0.0
40
456.255825
50
-12.789419
51
12.789419
0
LINE
8
0
10
-40.291854
20
-101.000625
11
-89.174914
21
-89.90416
0
ARC
8
0
10
-536.968595
20
0.0
40
405.722443
50
-11.028538
51
11.028538
0
LINE
8
0
10
-138.739024
20
77.613852
11
-89.570047
21
87.19675
0
ARC
8
0
10
-536.968595
20
0.0
40
455.816557
50
-11.028538
51
11.028538
0
LINE
8
0
10
-89.570047
20
-87.19675
11
-138.739024
21
-77.613852
0
ARC
8
0
10
-588.705176
20
0.0
40
405.610261
50
-9.481716
51
9.481716
0
LINE
8
0
10
-188.636273
20
66.817337
11
-139.250798
21
75.065431
0
ARC
8
0
10
-588.705176
20
0.0
40
455.679775
50
-9.481716
51
9.481716
0
LINE
8
0
10
-139.250798
20
-75.065431
11
-188.636273
21
-66.817337
0
ARC
8
0
10
-640.479608
20
0.0
40
405.760642
50
-8.124216
51
8.124216
0
LINE
8
0
10
-238.791172
20
57.341951
11
-189.242477
21
64.415142
0
ARC
8
0
10
-640.479608
20
0.0
40
455.811648
50
-8.124216
51
8.124216
0
LINE
8
0
10
-189.242477
20
-64.415142
11
-238.791172
21
-57.341951
0
ARC
8
0
10
-692.333801
20
0.0
40
406.159327
50
-6.933728
51
6.933728
0
LINE
8
0
10
-289.144941
20
49.03205
11
-239.473752
21
55.072595
0
ARC
8
0
10
-692.333801
20
0.0
40
456.196465
50
-6.933728
51
6.933728
0
LINE
8
0
10
-239.473752
20
-55.072595
11
-289.144941
21
-49.03205
0
ARC
8
0
10
-718.815523
20
0.0
40
381.447998
50
-6.281909
51
6.281909
0
LINE
8
0
10
-339.657909
20
41.73822
11
-289.927837
21
47.212578
0
ARC
8
0
10
-718.815523
20
0.0
40
431.478475
50
-6.281909
51
6.281909
0
LINE
8
0
10
-289.927837
20
-47.212578
11
-339.657909
21
-41.73822
0
LINE
8
0
10
-145.744887
20
263.467253
11
-145.744887
21
279.412904
0
LINE
8
0
10
-145.744887
20
246.521602
11
-145.744887
21
262.467253
0
LINE
8
0
10
-145.744887
20
279.412904
11
-242.201398
21
279.412904
0
LINE
8
0
10
-145.744887
20
262.467253
11
-242.201398
21
262.467253
0
LINE
8
0
10
-242.201398
20
279.412904
11
-242.201398
21
271.440078
0
LINE
8
0
10
-242.201398
20
271.440078
11
-243.201398
21
271.440078
0
LINE
8
0
10
-242.201398
20
262.467253
11
-243.201398
21
262.467253
0
LINE
8
0
10
-243.201398
20
271.440078
11
-243.201398
21
279.412904
0
LINE
8
0
10
-243.201398
20
279.412904
11
-339.657909
21
279.412904
0
LINE
8
0
10
-243.201398
20
262.467253
11
-339.657909
21
262.467253
0
LINE
8
0
10
-339.657909
20
279.412904
11
-339.657909
21
263.467253
0
LINE
8
0
10
-339.657909
20
262.467253
11
-339.657909
21
246.521602
0
LINE
8
0
10
-339.657909
20
263.467253
11
-337.660799
21
263.467253
0
LINE
8
0
10
-145.744887
20
263.467253
11
-147.741998
21
263.467253
0
LINE
8
0
10
-339.657909
20
246.521602
11
-337.660799
21
246.521602
0
LINE
8
0
10
-145.744887
20
246.521602
11
-147.741998
21
246.521602
0
LINE
8
0
10
-337.660799
20
263.467253
11
-336.185612
21
269.80914
0
LINE
8
0
10
-147.741998
20
263.467253
11
-149.217185
21
269.80914
0
LINE
8
0
10
-337.660799
20
246.521602
11
-336.185612
21
252.863489
0
LINE
8
0
10
-147.741998
20
246.521602
11
-149.217185
21
252.863489
0
LINE
8
0
10
-336.185612
20
269.80914
11
-335.185612
21
269.80914
0
LINE
8
0
10
-149.217185
20
269.80914
11
-150.217185
21
269.80914
0
LINE
8
0
10
-336.185612
20
252.863489
11
-335.185612
21
252.863489
0
LINE
8
0
10
-149.217185
20
252.863489
11
-150.217185
21
252.863489
0
LINE
8
0
10
-335.185612
20
269.80914
11
-335.185612
21
263.467253
0
LINE
8
0
10
-150.217185
20
269.80914
11
-150.217185
21
263.467253
0
LINE
8
0
10
-335.185612
20
252.863489
11
-335.185612
21
246.521602
0
LINE
8
0
10
-150.217185
20
252.863489
11
-150.217185
21
246.521602
0
LINE
8
0
10
-335.185612
20
263.467253
11
-332.17859
21
263.467253
0
LINE
8
0
10
-150.217185
20
263.467253
11
-153.224207
21
263.467253
0
LINE
8
0
10
-335.185612
20
246.521602
11
-332.17859
21
246.521602
0
LINE
8
0
10
-150.217185
20
246.521602
11
-153.224207
21
246.521602
0
LINE
8
0
10
-332.17859
20
263.467253
11
-330.785612
21
269.804268
0
LINE
8
0
10
-153.224207
20
263.467253
11
-154.617185
21
269.804268
0
LINE
8
0
10
-332.17859
20
246.521602
11
-330.785612
21
252.858617
0
LINE
8
0
10
-153.224207
20
246.521602
11
-154.617185
21
252.858617
0
LINE
8
0
10
-330.785612
20
269.804268
11
-329.785612
21
269.804268
0
LINE
8
0
10
-154.617185
20
269.804268
11
-155.617185
21
269.804268
0
LINE
8
0
10
-330.785612
20
252.858617
11
-329.785612
21
252.858617
0
LINE
8
0
10
-154.617185
20
252.858617
11
-155.617185
21
252.858617
0
LINE
8
0
10
-329.785612
20
269.804268
11
-329.785612
21
263.467253
0
LINE
8
0
10
-155.617185
20
269.804268
11
-155.617185
21
263.467253
0
LINE
8
0
10
-329.785612
20
252.858617
11
-329.785612
21
246.521602
0
LINE
8
0
10
-155.617185
20
252.858617
11
-155.617185
21
246.521602
0
LINE
8
0
10
-329.785612
20
263.467253
11
-326.694881
21
263.467253
0
LINE
8
0
10
-155.617185
20
263.467253
11
-158.707916
21
263.467253
0
LINE
8
0
10
-329.785612
20
246.521602
11
-326.694881
21
246.521602
0
LINE
8
0
10
-155.617185
20
246.521602
11
-158.707916
21
246.521602
0
LINE
8
0
10
-326.694881
20
263.467253
11
-325.385612
21
269.799266
0
LINE
8
0
10
-158.707916
20
263.467253
11
-160.017185
21
269.799266
0
LINE
8
0
10
-326.694881
20
246.521602
11
-325.385612
21
252.853615
0
LINE
8
0
10
-158.707916
20
246.521602
11
-160.017185
21
252.853615
0
LINE
8
0
10
-325.385612
20
269.799266
11
-324.385612
21
269.799266
0
LINE
8
0
10
-160.017185
20
269.799266
11
-161.017185
21
269.799266
0
LINE
8
0
10
-325.385612
20
252.853615
11
-324.385612
21
252.853615
0
LINE
8
0
10
-160.017185
20
252.853615
11
-161.017185
21
252.853615
0
LINE
8
0
10
-324.385612
20
269.799266
11
-324.385612
21
263.467253
0
LINE
8
0
10
-161.017185
20
269.799266
11
-161.017185
21
263.467253
0
LINE
8
0
10
-324.385612
20
252.853615
11
-324.385612
21
246.521602
0
LINE
8
0
10
-161.017185
20
252.853615
11
-161.017185
21
246.521602
0
LINE
8
0
10
-324.385612
20
263.467253
11
-321.209715
21
263.467253
0
LINE
8
0
10
-161.017185
20
263.467253
11
-164.193082
21
263.467253
0
LINE
8
0
10
-324.385612
20
246.521602
11
-321.209715
21
246.521602
0
LINE
8
0
10
-161.017185
20
246.521602
11
-164.193082
21
246.521602
0
LINE
8
0
10
-321.209715
20
263.467253
11
-319.985612
21
269.794134
0
LINE
8
0
10
-164.193082
20
263.467253
11
-165.417185
21
269.794134
0
LINE
8
0
10
-321.209715
20
246.521602
11
-319.985612
21
252.848483
0
LINE
8
0
10
-164.193082
20
246.521602
11
-165.417185
21
252.848483
0
LINE
8
0
10
-319.985612
20
269.794134
11
-318.985612
21
269.794134
0
LINE
8
0
10
-165.417185
20
269.794134
11
-166.417185
21
269.794134
0
LINE
8
0
10
-319.985612
20
252.848483
11
-318.985612
21
252.848483
0
LINE
8
0
10
-165.417185
20
252.848483
11
-166.417185
21
252.848483
0
LINE
8
0
10
-318.985612
20
269.794134
11
-318.985612
21
263.467253
0
LINE
8
0
10
-166.417185
20
269.794134
11
-166.417185
21
263.467253
0
LINE
8
0
10
-318.985612
20
252.848483
11
-318.985612
21
246.521602
0
LINE
8
0
10
-166.417185
20
252.848483
11
-166.417185
21
246.521602
0
LINE
8
0
10
-318.985612
20
263.467253
11
-315.723143
21
263.467253
0
LINE
8
0
10
-166.417185
20
263.467253
11
-169.679653
21
263.467253
0
LINE
8
0
10
-318.985612
20
246.521602
11
-315.723143
21
246.521602
0
LINE
8
0
10
-166.417185
20
246.521602
11
-169.679653
21
246.521602
0
LINE
8
0
10
-315.723143
20
263.467253
11
-314.585612
21
269.788878
0
LINE
8
0
10
-169.679653
20
263.467253
11
-170.817185
21
269.788878
0
LINE
8
0
10
-315.723143
20
246.521602
11
-314.585612
21
252.843227
0
LINE
8
0
10
-169.679653
20
246.521602
11
-170.817185
21
252.843227
0
LINE
8
0
10
-314.585612
20
269.788878
11
-313.585612
21
269.788878
0
LINE
8
0
10
-170.817185
20
269.788878
11
-171.817185
21
269.788878
0
LINE
8
0
10
-314.585612
20
252.843227
11
-313.585612
21
252.843227
0
LINE
8
0
10
-170.817185
20
252.843227
11
-171.817185
21
252.843227
0
LINE
8
0
10
-313.585612
20
269.788878
11
-313.585612
21
263.467253
0
LINE
8
0
10
-171.817185
20
269.788878
11
-171.817185
21
263.467253
0
LINE
8
0
10
-313.585612
20
252.843227
11
-313.585612
21
246.521602
0
LINE
8
0
10
-171.817185
20
252.843227
11
-171.817185
21
246.521602
0
LINE
8
0
10
-313.585612
20
263.467253
11
-310.235226
21
263.467253
0
LINE
8
0
10
-171.817185
20
263.467253
11
-175.167571
21
263.467253
0
LINE
8
0
10
-313.585612
20
246.521602
11
-310.235226
21
246.521602
0
LINE
8
0
10
-171.817185
20
246.521602
11
-175.167571
21
246.521602
0
LINE
8
0
10
-310.235226
20
263.467253
11
-309.185612
21
269.7835
0
LINE
8
0
10
-175.167571
20
263.467253
11
-176.217185
21
269.7835
0
LINE
8
0
10
-310.235226
20
246.521602
11
-309.185612
21
252.837849
0
LINE
8
0
10
-175.167571
20
246.521602
11
-176.217185
21
252.837849
0
LINE
8
0
10
-309.185612
20
269.7835
11
-308.185612
21
269.7835
0
LINE
8
0
10
-176.217185
20
269.7835
11
-177.217185
21
269.7835
0
LINE
8
0
10
-309.185612
20
252.837849
11
-308.185612
21
252.837849
0
LINE
8
0
10
-176.217185
20
252.837849
11
-177.217185
21
252.837849
0
LINE
8
0
10
-308.185612
20
269.7835
11
-308.185612
21
263.467253
0
LINE
8
0
10
-177.217185
20
269.7835
11
-177.217185
21
263.467253
0
LINE
8
0
10
-308.185612
20
252.837849
11
-308.185612
21
246.521602
0
LINE
8
0
10
-177.217185
20
252.837849
11
-177.217185
21
246.521602
0
LINE
8
0
10
-308.185612
20
263.467253
11
-304.746031
21
263.467253
0
LINE
8
0
10
-177.217185
20
263.467253
11
-180.656765
21
263.467253
0
LINE
8
0
10
-308.185612
20
246.521602
11
-304.746031
21
246.521602
0
LINE
8
0
10
-177.217185
20
246.521602
11
-180.656765
21
246.521602
0
LINE
8
0
10
-304.746031
20
263.467253
11
-303.785612
21
269.778006
0
LINE
8
0
10
-180.656765
20
263.467253
11
-181.617185
21
269.778006
0
LINE
8
0
10
-304.746031
20
246.521602
11
-303.785612
21
252.832355
0
LINE
8
0
10
-180.656765
20
246.521602
11
-181.617185
21
252.832355
0
LINE
8
0
10
-303.785612
20
269.778006
11
-302.785612
21
269.778006
0
LINE
8
0
10
-181.617185
20
269.778006
11
-182.617185
21
269.778006
0
LINE
8
0
10
-303.785612
20
252.832355
11
-302.785612
21
252.832355
0
LINE
8
0
10
-181.617185
20
252.832355
11
-182.617185
21
252.832355
0
LINE
8
0
10
-302.785612
20
269.778006
11
-302.785612
21
263.467253
0
LINE
8
0
10
-182.617185
20
269.778006
11
-182.617185
21
263.467253
0
LINE
8
0
10
-302.785612
20
252.832355
11
-302.785612
21
246.521602
0
LINE
8
0
10
-182.617185
20
252.832355
11
-182.617185
21
246.521602
0
LINE
8
0
10
-302.785612
20
263.467253
11
-299.255638
21
263.467253
0
LINE
8
0
10
-182.617185
20
263.467253
11
-186.147159
21
263.467253
0
LINE
8
0
10
-302.785612
20
246.521602
11
-299.255638
21
246.521602
0
LINE
8
0
10
-182.617185
20
246.521602
11
-186.147159
21
246.521602
0
LINE
8
0
10
-299.255638
20
263.467253
11
-298.385612
21
269.772402
0
LINE
8
0
10
-186.147159
20
263.467253
11
-187.017185
21
269.772402
0
LINE
8
0
10
-299.255638
20
246.521602
11
-298.385612
21
252.826751
0
LINE
8
0
10
-186.147159
20
246.521602
11
-187.017185
21
252.826751
0
LINE
8
0
10
-298.385612
20
269.772402
11
-297.385612
21
269.772402
0
LINE
8
0
10
-187.017185
20
269.772402
11
-188.017185
21
269.772402
0
LINE
8
0
10
-298.385612
20
252.826751
11
-297.385612
21
252.826751
0
LINE
8
0
10
-187.017185
20
252.826751
11
-188.017185
21
252.826751
0
LINE
8
0
10
-297.385612
20
269.772402
11
-297.385612
21
263.467253
0
LINE
8
0
10
-188.017185
20
269.772402
11
-188.017185
21
263.467253
0
LINE
8
0
10
-297.385612
20
252.826751
11
-297.385612
21
246.521602
0
LINE
8
0
10
-188.017185
20
252.826751
11
-188.017185
21
246.521602
0
LINE
8
0
10
-297.385612
20
263.467253
11
-293.764132
21
263.467253
0
LINE
8
0
10
-188.017185
20
263.467253
11
-191.638665
21
263.467253
0
LINE
8
0
10
-297.385612
20
246.521602
11
-293.764132
21
246.521602
0
LINE
8
0
10
-188.017185
20
246.521602
11
-191.638665
21
246.521602
0
LINE
8
0
10
-293.764132
20
263.467253
11
-292.985612
21
269.766696
0
LINE
8
0
10
-191.638665
20
263.467253
11
-192.417185
21
269.766696
0
LINE
8
0
10
-293.764132
20
246.521602
11
-292.985612
21
252.821045
0
LINE
8
0
10
-191.638665
20
246.521602
11
-192.417185
21
252.821045
0
LINE
8
0
10
-292.985612
20
269.766696
11
-291.985612
21
269.766696
0
LINE
8
0
10
-192.417185
20
269.766696
11
-193.417185
21
269.766696
0
LINE
8
0
10
-292.985612
20
252.821045
11
-291.985612
21
252.821045
0
LINE
8
0
10
-192.417185
20
252.821045
11
-193.417185
21
252.821045
0
LINE
8
0
10
-291.985612
20
269.766696
11
-291.985612
21
263.467253
0
LINE
8
0
10
-193.417185
20
269.766696
11
-193.417185
21
263.467253
0
LINE
8
0
10
-291.985612
20
252.821045
11
-291.985612
21
246.521602
0
LINE
8
0
10
-193.417185
20
252.821045
11
-193.417185
21
246.521602
0
LINE
8
0
10
-291.985612
20
263.467253
11
-288.271608
21
263.467253
0
LINE
8
0
10
-193.417185
20
263.467253
11
-197.131189
21
263.467253
0
LINE
8
0
10
-291.985612
20
246.521602
11
-288.271608
21
246.521602
0
LINE
8
0
10
-193.417185
20
246.521602
11
-197.131189
21
246.521602
0
LINE
8
0
10
-288.271608
20
263.467253
11
-287.585612
21
269.760894
0
LINE
8
0
10
-197.131189
20
263.467253
11
-197.817185
21
269.760894
0
LINE
8
0
10
-288.271608
20
246.521602
11
-287.585612
21
252.815243
0
LINE
8
0
10
-197.131189
20
246.521602
11
-197.817185
21
252.815243
0
LINE
8
0
10
-287.585612
20
269.760894
11
-286.585612
21
269.760894
0
LINE
8
0
10
-197.817185
20
269.760894
11
-198.817185
21
269.760894
0
LINE
8
0
10
-287.585612
20
252.815243
11
-286.585612
21
252.815243
0
LINE
8
0
10
-197.817185
20
252.815243
11
-198.817185
21
252.815243
0
LINE
8
0
10
-286.585612
20
269.760894
11
-286.585612
21
263.467253
0
LINE
8
0
10
-198.817185
20
269.760894
11
-198.817185
21
263.467253
0
LINE
8
0
10
-286.585612
20
252.815243
11
-286.585612
21
246.521602
0
LINE
8
0
10
-198.817185
20
252.815243
11
-198.817185
21
246.521602
0
LINE
8
0
10
-286.585612
20
263.467253
11
-282.7808
21
263.467253
0
LINE
8
0
10
-198.817185
20
263.467253
11
-202.621997
21
263.467253
0
LINE
8
0
10
-286.585612
20
246.521602
11
-282.7808
21
246.521602
0
LINE
8
0
10
-198.817185
20
246.521602
11
-202.621997
21
246.521602
0
LINE
8
0
10
-282.7808
20
263.467253
11
-282.185612
21
269.755173
0
LINE
8
0
10
-202.621997
20
263.467253
11
-203.217185
21
269.755173
0
LINE
8
0
10
-282.7808
20
246.521602
11
-282.185612
21
252.809522
0
LINE
8
0
10
-202.621997
20
246.521602
11
-203.217185
21
252.809522
0
LINE
8
0
10
-282.185612
20
269.755173
11
-281.185612
21
269.755173
0
LINE
8
0
10
-203.217185
20
269.755173
11
-204.217185
21
269.755173
0
LINE
8
0
10
-282.185612
20
252.809522
11
-281.185612
21
252.809522
0
LINE
8
0
10
-203.217185
20
252.809522
11
-204.217185
21
252.809522
0
LINE
8
0
10
-281.185612
20
269.755173
11
-281.185612
21
263.467253
0
LINE
8
0
10
-204.217185
20
269.755173
11
-204.217185
21
263.467253
0
LINE
8
0
10
-281.185612
20
252.809522
11
-281.185612
21
246.521602
0
LINE
8
0
10
-204.217185
20
252.809522
11
-204.217185
21
246.521602
0
LINE
8
0
10
-281.185612
20
263.467253
11
-277.452293
21
263.467253
0
LINE
8
0
10
-204.217185
20
263.467253
11
-207.950503
21
263.467253
0
LINE
8
0
10
-281.185612
20
246.521602
11
-277.452293
21
246.521602
0
LINE
8
0
10
-204.217185
20
246.521602
11
-207.950503
21
246.521602
0
LINE
8
0
10
-277.452293
20
263.467253
11
-276.936956
21
269.750123
0
LINE
8
0
10
-207.950503
20
263.467253
11
-208.46584
21
269.750123
0
LINE
8
0
10
-277.452293
20
246.521602
11
-276.936956
21
252.804472
0
LINE
8
0
10
-207.950503
20
246.521602
11
-208.46584
21
252.804472
0
LINE
8
0
10
-276.936956
20
269.750123
11
-275.936956
21
269.750123
0
LINE
8
0
10
-208.46584
20
269.750123
11
-209.46584
21
269.750123
0
LINE
8
0
10
-276.936956
20
252.804472
11
-275.936956
21
252.804472
0
LINE
8
0
10
-208.46584
20
252.804472
11
-209.46584
21
252.804472
0
LINE
8
0
10
-275.936956
20
269.750123
11
-275.936956
21
263.467253
0
LINE
8
0
10
-209.46584
20
269.750123
11
-209.46584
21
263.467253
0
LINE
8
0
10
-275.936956
20
252.804472
11
-275.936956
21
246.521602
0
LINE
8
0
10
-209.46584
20
252.804472
11
-209.46584
21
246.521602
0
LINE
8
0
10
-275.936956
20
263.467253
11
-272.803021
21
263.467253
0
LINE
8
0
10
-209.46584
20
263.467253
11
-212.599776
21
263.467253
0
LINE
8
0
10
-275.936956
20
246.521602
11
-272.803021
21
246.521602
0
LINE
8
0
10
-209.46584
20
246.521602
11
-212.599776
21
246.521602
0
LINE
8
0
10
-272.803021
20
263.467253
11
-272.357818
21
269.745674
0
LINE
8
0
10
-212.599776
20
263.467253
11
-213.044978
21
269.745674
0
LINE
8
0
10
-272.803021
20
246.521602
11
-272.357818
21
252.800022
0
LINE
8
0
10
-212.599776
20
246.521602
11
-213.044978
21
252.800022
0
LINE
8
0
10
-272.357818
20
269.745674
11
-271.357818
21
269.745674
0
LINE
8
0
10
-213.044978
20
269.745674
11
-214.044978
21
269.745674
0
LINE
8
0
10
-272.357818
20
252.800022
11
-271.357818
21
252.800022
0
LINE
8
0
10
-213.044978
20
252.800022
11
-214.044978
21
252.800022
0
LINE
8
0
10
-271.357818
20
269.745674
11
-271.357818
21
263.467253
0
LINE
8
0
10
-214.044978
20
269.745674
11
-214.044978
21
263.467253
0
LINE
8
0
10
-271.357818
20
252.800022
11
-271.357818
21
246.521602
0
LINE
8
0
10
-214.044978
20
252.800022
11
-214.044978
21
246.521602
0
LINE
8
0
10
-271.357818
20
263.467253
11
-268.743529
21
263.467253
0
LINE
8
0
10
-214.044978
20
263.467253
11
-216.659268
21
263.467253
0
LINE
8
0
10
-271.357818
20
246.521602
11
-268.743529
21
246.521602
0
LINE
8
0
10
-214.044978
20
246.521602
11
-216.659268
21
246.521602
0
LINE
8
0
10
-268.743529
20
263.467253
11
-268.359872
21
269.74176
0
LINE
8
0
10
-216.659268
20
263.467253
11
-217.042924
21
269.74176
0
LINE
8
0
10
-268.743529
20
246.521602
11
-268.359872
21
252.796109
0
LINE
8
0
10
-216.659268
20
246.521602
11
-217.042924
21
252.796109
0
LINE
8
0
10
-268.359872
20
269.74176
11
-267.359872
21
269.74176
0
LINE
8
0
10
-217.042924
20
269.74176
11
-218.042924
21
269.74176
0
LINE
8
0
10
-268.359872
20
252.796109
11
-267.359872
21
252.796109
0
LINE
8
0
10
-217.042924
20
252.796109
11
-218.042924
21
252.796109
0
LINE
8
0
10
-267.359872
20
269.74176
11
-267.359872
21
263.467253
0
LINE
8
0
10
-218.042924
20
269.74176
11
-218.042924
21
263.467253
0
LINE
8
0
10
-267.359872
20
252.796109
11
-267.359872
21
246.521602
0
LINE
8
0
10
-218.042924
20
252.796109
11
-218.042924
21
246.521602
0
LINE
8
0
10
-267.359872
20
263.467253
11
-265.197089
21
263.467253
0
LINE
8
0
10
-218.042924
20
263.467253
11
-220.205707
21
263.467253
0
LINE
8
0
10
-267.359872
20
246.521602
11
-265.197089
21
246.521602
0
LINE
8
0
10
-218.042924
20
246.521602
11
-220.205707
21
246.521602
0
LINE
8
0
10
-265.197089
20
263.467253
11
-264.867405
21
269.738323
0
LINE
8
0
10
-220.205707
20
263.467253
11
-220.535391
21
269.738323
0
LINE
8
0
10
-265.197089
20
246.521602
11
-264.867405
21
252.792672
0
LINE
8
0
10
-220.205707
20
246.521602
11
-220.535391
21
252.792672
0
LINE
8
0
10
-264.867405
20
269.738323
11
-263.867405
21
269.738323
0
LINE
8
0
10
-220.535391
20
269.738323
11
-221.535391
21
269.738323
0
LINE
8
0
10
-264.867405
20
252.792672
11
-263.867405
21
252.792672
0
LINE
8
0
10
-220.535391
20
252.792672
11
-221.535391
21
252.792672
0
LINE
8
0
10
-263.867405
20
269.738323
11
-263.867405
21
263.467253
0
LINE
8
0
10
-221.535391
20
269.738323
11
-221.535391
21
263.467253
0
LINE
8
0
10
-263.867405
20
252.792672
11
-263.867405
21
246.521602
0
LINE
8
0
10
-221.535391
20
252.792672
11
-221.535391
21
246.521602
0
LINE
8
0
10
-263.867405
20
263.467253
11
-262.097594
21
263.467253
0
LINE
8
0
10
-221.535391
20
263.467253
11
-223.305203
21
263.467253
0
LINE
8
0
10
-263.867405
20
246.521602
11
-262.097594
21
246.521602
0
LINE
8
0
10
-221.535391
20
246.521602
11
-223.305203
21
246.521602
0
LINE
8
0
10
-262.097594
20
263.467253
11
-261.815215
21
269.735306
0
LINE
8
0
10
-223.305203
20
263.467253
11
-223.587582
21
269.735306
0
LINE
8
0
10
-262.097594
20
246.521602
11
-261.815215
21
252.789655
0
LINE
8
0
10
-223.305203
20
246.521602
11
-223.587582
21
252.789655
0
LINE
8
0
10
-261.815215
20
269.735306
11
-260.815215
21
269.735306
0
LINE
8
0
10
-223.587582
20
269.735306
11
-224.587582
21
269.735306
0
LINE
8
0
10
-261.815215
20
252.789655
11
-260.815215
21
252.789655
0
LINE
8
0
10
-223.587582
20
252.789655
11
-224.587582
21
252.789655
0
LINE
8
0
10
-260.815215
20
269.735306
11
-260.815215
21
263.467253
0
LINE
8
0
10
-224.587582
20
269.735306
11
-224.587582
21
263.467253
0
LINE
8
0
10
-260.815215
20
252.789655
11
-260.815215
21
246.521602
0
LINE
8
0
10
-224.587582
20
252.789655
11
-224.587582
21
246.521602
0
LINE
8
0
10
-260.815215
20
263.467253
11
-259.387878
21
263.467253
0
LINE
8
0
10
-224.587582
20
263.467253
11
-226.014919
21
263.467253
0
LINE
8
0
10
-260.815215
20
246.521602
11
-259.387878
21
246.521602
0
LINE
8
0
10
-224.587582
20
246.521602
11
-226.014919
21
246.521602
0
LINE
8
0
10
-259.387878
20
263.467253
11
-259.146945
21
269.732661
0
LINE
8
0
10
-226.014919
20
263.467253
11
-226.255852
21
269.732661
0
LINE
8
0
10
-259.387878
20
246.521602
11
-259.146945
21
252.78701
0
LINE
8
0
10
-226.014919
20
246.521602
11
-226.255852
21
252.78701
0
LINE
8
0
10
-259.146945
20
269.732661
11
-258.146945
21
269.732661
0
LINE
8
0
10
-226.255852
20
269.732661
11
-227.255852
21
269.732661
0
LINE
8
0
10
-259.146945
20
252.78701
11
-258.146945
21
252.78701
0
LINE
8
0
10
-226.255852
20
252.78701
11
-227.255852
21
252.78701
0
LINE
8
0
10
-258.146945
20
269.732661
11
-258.146945
21
263.467253
0
LINE
8
0
10
-227.255852
20
269.732661
11
-227.255852
21
263.467253
0
LINE
8
0
10
-258.146945
20
252.78701
11
-258.146945
21
246.521602
0
LINE
8
0
10
-227.255852
20
252.78701
11
-227.255852
21
246.521602
0
LINE
8
0
10
-258.146945
20
263.467253
11
-257.031996
21
263.467253
0
LINE
8
0
10
-227.255852
20
263.467253
11
-228.3708
21
263.467253
0
LINE
8
0
10
-258.146945
20
246.521602
11
-257.031996
21
246.521602
0
LINE
8
0
10
-227.255852
20
246.521602
11
-228.3708
21
246.521602
0
LINE
8
0
10
-257.031996
20
263.467253
11
-256.813741
21
269.731212
0
LINE
8
0
10
-228.3708
20
263.467253
11
-228.589055
21
269.731212
0
LINE
8
0
10
-257.031996
20
246.521602
11
-256.813741
21
252.785561
0
LINE
8
0
10
-228.3708
20
246.521602
11
-228.589055
21
252.785561
0
LINE
8
0
10
-256.813741
20
269.731212
11
-255.813741
21
269.731212
0
LINE
8
0
10
-228.589055
20
269.731212
11
-229.589055
21
269.731212
0
LINE
8
0
10
-256.813741
20
252.785561
11
-255.813741
21
252.785561
0
LINE
8
0
10
-228.589055
20
252.785561
11
-229.589055
21
252.785561
0
LINE
8
0
10
-255.813741
20
269.731212
11
-255.813741
21
263.467253
0
LINE
8
0
10
-229.589055
20
269.731212
11
-229.589055
21
263.467253
0
LINE
8
0
10
-255.813741
20
252.785561
11
-255.813741
21
246.521602
0
LINE
8
0
10
-229.589055
20
252.785561
11
-229.589055
21
246.521602
0
LINE
8
0
10
-255.813741
20
263.467253
11
-243.201398
21
263.467253
0
LINE
8
0
10
-255.813741
20
246.521602
11
-243.201398
21
246.521602
0
LINE
8
0
10
-243.201398
20
263.467253
11
-243.201398
21
263.467253
0
LINE
8
0
10
-243.201398
20
246.521602
11
-243.201398
21
254.494427
0
LINE
8
0
10
-243.201398
20
263.467253
11
-242.201398
21
263.467253
0
LINE
8
0
10
-243.201398
20
254.494427
11
-242.201398
21
254.494427
0
LINE
8
0
10
-242.201398
20
263.467253
11
-242.201398
21
263.467253
0
LINE
8
0
10
-242.201398
20
254.494427
11
-242.201398
21
246.521602
0
LINE
8
0
10
-242.201398
20
263.467253
11
-229.589055
21
263.467253
0
LINE
8
0
10
-242.201398
20
246.521602
11
-229.589055
21
246.521602
0
ENDSEC
0
EOF
