<?xml version="1.0" encoding="utf-8" ?>
<svg baseProfile="full" height="170.0mm" version="1.1" viewBox="-550.0,-300.0,1100.0,850.0" width="220.0mm" xmlns="http://www.w3.org/2000/svg" xmlns:ev="http://www.w3.org/2001/xml-events" xmlns:xlink="http://www.w3.org/1999/xlink"><defs /><g id="vtop" transform="translate(0,5.0)"><circle cx="0" cy="0" fill="gray" r="97.1565110275mm" stroke="black" stroke-width="0.4mm" /><circle cx="0" cy="0" fill="white" r="92.4842137104mm" /><circle cx="0" cy="0" fill="gray" r="91.81098174mm" stroke="black" stroke-width="0.4mm" /><circle cx="0" cy="0" fill="white" r="87.0842137104mm" /><circle cx="0" cy="0" fill="gray" r="86.4638299742mm" stroke="black" stroke-width="0.4mm" /><circle cx="0" cy="0" fill="white" r="81.6842137104mm" /><circle cx="0" cy="0" fill="gray" r="81.1147872117mm" stroke="black" stroke-width="0.4mm" /><circle cx="0" cy="0" fill="white" r="76.2842137104mm" /><circle cx="0" cy="0" fill="gray" r="75.7635769131mm" stroke="black" stroke-width="0.4mm" /><circle cx="0" cy="0" fill="white" r="70.8842137104mm" /><circle cx="0" cy="0" fill="gray" r="70.4099174259mm" stroke="black" stroke-width="0.4mm" /><circle cx="0" cy="0" fill="white" r="65.4842137104mm" /><circle cx="0" cy="0" fill="gray" r="65.0535253657mm" stroke="black" stroke-width="0.4mm" /><circle cx="0" cy="0" fill="white" r="60.0842137104mm" /><circle cx="0" cy="0" fill="gray" r="59.6941194346mm" stroke="black" stroke-width="0.4mm" /><circle cx="0" cy="0" fill="white" r="54.6842137104mm" /><circle cx="0" cy="0" fill="gray" r="54.3314246109mm" stroke="black" stroke-width="0.4mm" /><circle cx="0" cy="0" fill="white" r="49.2842137104mm" /><circle cx="0" cy="0" fill="gray" r="48.9651766231mm" stroke="black" stroke-width="0.4mm" /><circle cx="0" cy="0" fill="white" r="43.8842137104mm" /><circle cx="0" cy="0" fill="gray" r="43.4457172607mm" stroke="black" stroke-width="0.4mm" /><circle cx="0" cy="0" fill="white" r="38.4842137104mm" /><circle cx="0" cy="0" fill="gray" r="37.5582543881mm" stroke="black" stroke-width="0.4mm" /><circle cx="0" cy="0" fill="white" r="33.2355578694mm" /><circle cx="0" cy="0" fill="gray" r="32.4180381009mm" stroke="black" stroke-width="0.4mm" /><circle cx="0" cy="0" fill="white" r="28.6564200796mm" /><circle cx="0" cy="0" fill="gray" r="27.9277231786mm" stroke="black" stroke-width="0.4mm" /><circle cx="0" cy="0" fill="white" r="24.6584740785mm" /><circle cx="0" cy="0" fill="gray" r="24.0034786255mm" stroke="black" stroke-width="0.4mm" /><circle cx="0" cy="0" fill="white" r="21.1660069167mm" /><circle cx="0" cy="0" fill="gray" r="20.572845451mm" stroke="black" stroke-width="0.4mm" /><circle cx="0" cy="0" fill="white" r="18.1138167087mm" /><circle cx="0" cy="0" fill="gray" r="17.5730126232mm" stroke="black" stroke-width="0.4mm" /><circle cx="0" cy="0" fill="white" r="15.4455464619mm" /><circle cx="0" cy="0" fill="gray" r="15.058381626mm" stroke="black" stroke-width="0.4mm" /><circle cx="0" cy="0" fill="white" r="13.1123431514mm" /><rect fill="white" height="100.0mm" width="200.0mm" x="-100.0mm" y="-100.0mm" /><circle cx="0" cy="0" fill="red" opacity="0.0555555555556" r="5.0mm" /><circle cx="0" cy="0" fill="red" opacity="0.0555555555556" r="5.0mm" /><circle cx="0" cy="0" fill="red" opacity="0.0555555555556" r="5.0mm" /><circle cx="0" cy="0" fill="red" opacity="0.0555555555556" r="5.0mm" /><circle cx="0" cy="0" fill="red" opacity="0.0555555555556" r="5.0mm" /><circle cx="0" cy="0" fill="red" opacity="0.0555555555556" r="5.0mm" /><circle cx="0" cy="0" fill="red" opacity="0.0555555555556" r="5.0mm" /><circle cx="0" cy="0" fill="red" opacity="0.0555555555556" r="5.0mm" /><circle cx="0" cy="0" fill="red" opacity="0.0555555555556" r="5.0mm" /><circle cx="0" cy="0" fill="red" opacity="0.0555555555556" r="5.0mm" /><circle cx="0" cy="0" fill="red" opacity="0.0555555555556" r="4.84865584103mm" /><circle cx="0" cy="0" fill="red" opacity="0.0555555555556" r="4.17913778978mm" /><circle cx="0" cy="0" fill="red" opacity="0.0555555555556" r="3.59794600116mm" /><circle cx="0" cy="0" fill="red" opacity="0.0555555555556" r="3.09246716181mm" /><circle cx="0" cy="0" fill="red" opacity="0.0555555555556" r="2.65219020795mm" /><circle cx="0" cy="0" fill="red" opacity="0.0555555555556" r="2.26827024683mm" /><circle cx="0" cy="0" fill="red" opacity="0.0555555555556" r="1.93320331047mm" /><circle cx="0" cy="0" fill="red" opacity="0.0555555555556" r="0.875151061294mm" /><circle cx="0" cy="0" fill="red" opacity="0.0555555555556" r="13.1123431514mm" /><rect fill="white" height="13.1123431514mm" width="26.2246863028mm" x="-13.1123431514mm" y="-13.1123431514mm" /></g><line stroke="black" stroke-width="0.4mm" x1="92.6842137104mm" x2="97.1565110275mm" y1="0" y2="-18.9480131349mm" /><line stroke="black" stroke-width="0.4mm" x1="-92.6842137104mm" x2="-97.1565110275mm" y1="0" y2="-18.9480131349mm" /><line stroke="black" stroke-width="0.4mm" x1="87.2842137104mm" x2="91.81098174mm" y1="0" y2="-20.310658162mm" /><line stroke="black" stroke-width="0.4mm" x1="-87.2842137104mm" x2="-91.81098174mm" y1="0" y2="-20.310658162mm" /><line stroke="black" stroke-width="0.4mm" x1="81.8842137104mm" x2="86.4638299742mm" y1="0" y2="-21.8615118424mm" /><line stroke="black" stroke-width="0.4mm" x1="-81.8842137104mm" x2="-86.4638299742mm" y1="0" y2="-21.8615118424mm" /><line stroke="black" stroke-width="0.4mm" x1="76.4842137104mm" x2="81.1147872117mm" y1="0" y2="-23.6426871392mm" /><line stroke="black" stroke-width="0.4mm" x1="-76.4842137104mm" x2="-81.1147872117mm" y1="0" y2="-23.6426871392mm" /><line stroke="black" stroke-width="0.4mm" x1="71.0842137104mm" x2="75.7635769131mm" y1="0" y2="-25.7100823563mm" /><line stroke="black" stroke-width="0.4mm" x1="-71.0842137104mm" x2="-75.7635769131mm" y1="0" y2="-25.7100823563mm" /><line stroke="black" stroke-width="0.4mm" x1="65.6842137104mm" x2="70.4099174259mm" y1="0" y2="-28.1395432923mm" /><line stroke="black" stroke-width="0.4mm" x1="-65.6842137104mm" x2="-70.4099174259mm" y1="0" y2="-28.1395432923mm" /><line stroke="black" stroke-width="0.4mm" x1="60.2842137104mm" x2="65.0535253657mm" y1="0" y2="-31.03665142mm" /><line stroke="black" stroke-width="0.4mm" x1="-60.2842137104mm" x2="-65.0535253657mm" y1="0" y2="-31.03665142mm" /><line stroke="black" stroke-width="0.4mm" x1="54.8842137104mm" x2="59.6941194346mm" y1="0" y2="-34.5528966551mm" /><line stroke="black" stroke-width="0.4mm" x1="-54.8842137104mm" x2="-59.6941194346mm" y1="0" y2="-34.5528966551mm" /><line stroke="black" stroke-width="0.4mm" x1="49.4842137104mm" x2="54.3314246109mm" y1="0" y2="-38.9136842047mm" /><line stroke="black" stroke-width="0.4mm" x1="-49.4842137104mm" x2="-54.3314246109mm" y1="0" y2="-38.9136842047mm" /><line stroke="black" stroke-width="0.4mm" x1="44.0842137104mm" x2="48.9651766231mm" y1="0" y2="-44.4696792019mm" /><line stroke="black" stroke-width="0.4mm" x1="-44.0842137104mm" x2="-48.9651766231mm" y1="0" y2="-44.4696792019mm" /><line stroke="black" stroke-width="0.4mm" x1="38.6842137104mm" x2="43.4457172607mm" y1="0" y2="-50.0mm" /><line stroke="black" stroke-width="0.4mm" x1="-38.6842137104mm" x2="-43.4457172607mm" y1="0" y2="-50.0mm" /><line stroke="black" stroke-width="0.4mm" x1="33.4355578694mm" x2="37.5582543881mm" y1="0" y2="-50.0mm" /><line stroke="black" stroke-width="0.4mm" x1="-33.4355578694mm" x2="-37.5582543881mm" y1="0" y2="-50.0mm" /><line stroke="black" stroke-width="0.4mm" x1="28.8564200796mm" x2="32.4180381009mm" y1="0" y2="-50.0mm" /><line stroke="black" stroke-width="0.4mm" x1="-28.8564200796mm" x2="-32.4180381009mm" y1="0" y2="-50.0mm" /><line stroke="black" stroke-width="0.4mm" x1="24.8584740785mm" x2="27.9277231786mm" y1="0" y2="-50.0mm" /><line stroke="black" stroke-width="0.4mm" x1="-24.8584740785mm" x2="-27.9277231786mm" y1="0" y2="-50.0mm" /><line stroke="black" stroke-width="0.4mm" x1="21.3660069167mm" x2="24.0034786255mm" y1="0" y2="-50.0mm" /><line stroke="black" stroke-width="0.4mm" x1="-21.3660069167mm" x2="-24.0034786255mm" y1="0" y2="-50.0mm" /><line stroke="black" stroke-width="0.4mm" x1="18.3138167087mm" x2="20.572845451mm" y1="0" y2="-50.0mm" /><line stroke="black" stroke-width="0.4mm" x1="-18.3138167087mm" x2="-20.572845451mm" y1="0" y2="-50.0mm" /><line stroke="black" stroke-width="0.4mm" x1="15.6455464619mm" x2="17.5730126232mm" y1="0" y2="-50.0mm" /><line stroke="black" stroke-width="0.4mm" x1="-15.6455464619mm" x2="-17.5730126232mm" y1="0" y2="-50.0mm" /><line stroke="black" stroke-width="0.4mm" x1="13.3123431514mm" x2="15.058381626mm" y1="0" y2="-50.0mm" /><line stroke="black" stroke-width="0.4mm" x1="-13.3123431514mm" x2="-15.058381626mm" y1="0" y2="-50.0mm" /><line stroke="red" stroke-width="5.309340919mm" x1="-5.0mm" x2="5.0mm" y1="-2.6546704595mm" y2="-2.6546704595mm" /><line stroke="red" stroke-width="5.06918002103mm" x1="-5.0mm" x2="5.0mm" y1="-7.72385048053mm" y2="-7.72385048053mm" /><line stroke="red" stroke-width="4.81992895772mm" x1="-5.0mm" x2="5.0mm" y1="-12.5437794382mm" y2="-12.5437794382mm" /><line stroke="red" stroke-width="4.56164161942mm" x1="-5.0mm" x2="5.0mm" y1="-17.1054210577mm" y2="-17.1054210577mm" /><line stroke="red" stroke-width="4.29443643021mm" x1="-5.0mm" x2="5.0mm" y1="-21.3998574879mm" y2="-21.3998574879mm" /><line stroke="red" stroke-width="4.0185016655mm" x1="-5.0mm" x2="5.0mm" y1="-25.4183591534mm" y2="-25.4183591534mm" /><line stroke="red" stroke-width="3.73409999717mm" x1="-5.0mm" x2="5.0mm" y1="-29.1524591505mm" y2="-29.1524591505mm" /><line stroke="red" stroke-width="3.44157201322mm" x1="-5.0mm" x2="5.0mm" y1="-32.5940311638mm" y2="-32.5940311638mm" /><line stroke="red" stroke-width="3.14133846178mm" x1="-5.0mm" x2="5.0mm" y1="-35.7353696255mm" y2="-35.7353696255mm" /><line stroke="red" stroke-width="2.83390098571mm" x1="-5.0mm" x2="5.0mm" y1="-38.5692706113mm" y2="-38.5692706113mm" /><line stroke="red" stroke-width="2.43871945711mm" x1="-4.84865584103mm" x2="4.84865584103mm" y1="-41.0079900684mm" y2="-41.0079900684mm" /><line stroke="red" stroke-width="1.82383103195mm" x1="-4.17913778978mm" x2="4.17913778978mm" y1="-42.8318211003mm" y2="-42.8318211003mm" /><line stroke="red" stroke-width="1.3586858346mm" x1="-3.59794600116mm" x2="3.59794600116mm" y1="-44.1905069349mm" y2="-44.1905069349mm" /><line stroke="red" stroke-width="1.00759408598mm" x1="-3.09246716181mm" x2="3.09246716181mm" y1="-45.1981010209mm" y2="-45.1981010209mm" /><line stroke="red" stroke-width="0.743262681231mm" x1="-2.65219020795mm" x2="2.65219020795mm" y1="-45.9413637021mm" y2="-45.9413637021mm" /><line stroke="red" stroke-width="0.544839521528mm" x1="-2.26827024683mm" x2="2.26827024683mm" y1="-46.4862032237mm" y2="-46.4862032237mm" /><line stroke="red" stroke-width="0.396408419602mm" x1="-1.93320331047mm" x2="1.93320331047mm" y1="-46.8826116433mm" y2="-46.8826116433mm" /><line stroke="red" stroke-width="0.306051229082mm" x1="-0.875151061294mm" x2="0.875151061294mm" y1="-47.1886628723mm" y2="-47.1886628723mm" /><line stroke="black" stroke-dasharray="5 5" stroke-width="2.5" x1="-110.0mm" x2="110.0mm" y1="2.5" y2="2.5" /><text font-size="4mm" x="-110.0mm" y="94.0mm">TOP VIEW</text><text font-size="3mm" x="-110.0mm" y="98.0mm">black lines = material edge</text><text font-size="3mm" x="-110.0mm" y="102.0mm">shaded middle ~= light intensity</text><text font-size="4mm" x="-110.0mm" y="-59.0mm">SECTION VIEW</text><text font-size="3mm" x="-110.0mm" y="-55.0mm">line width = material thickness</text><text font-size="3mm" x="-110.0mm" y="-51.0mm">bar graph ~= light intensity</text><text font-size="3mm" text-anchor="end" x="100.0mm" y="-59.5mm">18 rings</text><text font-size="3mm" text-anchor="end" x="100.0mm" y="-56.0mm">average focused brightness is 25x</text><text font-size="3mm" text-anchor="end" x="100.0mm" y="-52.0mm">85% of light is captured</text></svg>